<svg xmlns="http://www.w3.org/2000/svg" viewBox="0 0 1024 1024">
<rect width="1024" height="1024" fill="#000"/>
<g fill="#fff">
  <path d="
    M 460 347
    L 332 347
    C 281 347, 237 391, 237 442
    L 237 572
    C 237 623, 281 665, 332 665
    L 501 665
    L 501 606
    L 350 606
    C 331 606, 315 590, 315 571
    L 315 448
    C 315 424, 331 407, 355 407
    L 489 407
    Z"/>
  <path d="M 485 346 L 566 346 L 620 443 L 581 512 Z"/>
  <path d="M 700 347 L 784 346 L 673 540 L 673 665 L 596 665 L 596 529 Z"/>
</g>
</svg>